<?xml version="1.0" encoding="UTF-8" standalone="no"?>
<svg
   xmlns:dc="http://purl.org/dc/elements/1.1/"
   xmlns:cc="http://creativecommons.org/ns#"
   xmlns:rdf="http://www.w3.org/1999/02/22-rdf-syntax-ns#"
   xmlns:svg="http://www.w3.org/2000/svg"
   xmlns="http://www.w3.org/2000/svg"
   xmlns:sodipodi="http://sodipodi.sourceforge.net/DTD/sodipodi-0.dtd"
   xmlns:inkscape="http://www.inkscape.org/namespaces/inkscape"
   version="1.0"
   width="656.000000pt"
   height="320.000000pt"
   viewBox="0 0 656.000000 320.000000"
   preserveAspectRatio="xMidYMid meet"
   id="svg3741"
   sodipodi:docname="05-lql-full.svg"
   inkscape:version="0.92.5 (2060ec1f9f, 2020-04-08)">
  <metadata
     id="metadata3747">
    <rdf:RDF>
      <cc:Work
         rdf:about="">
        <dc:format>image/svg+xml</dc:format>
        <dc:type
           rdf:resource="http://purl.org/dc/dcmitype/StillImage" />
      </cc:Work>
    </rdf:RDF>
  </metadata>
  <defs
     id="defs3745" />
  <sodipodi:namedview
     pagecolor="#ffffff"
     bordercolor="#666666"
     borderopacity="1"
     objecttolerance="10"
     gridtolerance="10"
     guidetolerance="10"
     inkscape:pageopacity="0"
     inkscape:pageshadow="2"
     inkscape:window-width="1366"
     inkscape:window-height="705"
     id="namedview3743"
     showgrid="false"
     inkscape:zoom="1.228125"
     inkscape:cx="437.33333"
     inkscape:cy="213.33333"
     inkscape:window-x="-8"
     inkscape:window-y="-8"
     inkscape:window-maximized="1"
     inkscape:current-layer="svg3741" />
  <g
     transform="translate(0.000000,320.000000) scale(0.100000,-0.100000)"
     fill="#000000"
     stroke="none"
     id="g3739">
    <path
       d="M3199 3115 c-106 -15 -203 -46 -291 -93 -37 -20 -71 -33 -74 -29 -4 4 -2 28 4 54 5 27 9 49 7 51 -5 5 -84 -46 -131 -85 -79 -64 -217 -252 -247 -336 -11 -30 -24 -11 -36 53 l-12 60 -37 -47 c-62 -79 -106 -153 -150 -251 -23 -52 -44 -101 -46 -110 -1 -10 -8 -28 -13 -42 -6 -14 -16 -51 -23 -83 -8 -32 -18 -56 -24 -54 -6 2 -20 40 -32 85 -12 46 -23 85 -26 88 -7 7 -75 -156 -95 -228 l-16 -58 -80 0 c-227 0 -494 -74 -688 -191 -45 -27 -83 -49 -84 -49 -1 0 -33 20 -71 45 -37 25 -74 45 -81 45 -20 0 -17 7 32 70 55 72 122 128 226 191 84 50 256 122 322 134 29 6 36 10 27 19 -7 7 -78 11 -218 11 -194 0 -214 -2 -314 -28 -480 -125 -818 -471 -888 -910 -20 -121 -8 -330 24 -442 193 -659 962 -1005 1648 -743 43 16 80 33 83 38 6 9 -25 102 -53 155 -37 73 -109 162 -155 191 -26 16 -46 34 -47 39 0 6 15 20 34 33 19 13 47 42 62 64 28 40 29 40 79 34 88 -10 207 -46 301 -90 76 -36 114 -64 225 -163 156 -139 205 -195 262 -303 l18 -35 -5 40 c-6 45 -64 169 -95 202 -12 12 -21 25 -21 29 0 8 -116 143 -203 237 -75 81 -119 150 -153 243 -153 419 -83 928 180 1299 104 148 252 305 377 400 35 27 66 52 69 55 5 6 185 116 258 157 23 14 42 20 42 15 0 -11 -20 -26 -145 -109 -141 -94 -353 -294 -443 -418 -147 -203 -235 -395 -281 -610 -46 -214 -51 -453 -15 -650 19 -98 18 -98 47 26 26 110 153 365 218 435 28 30 24 37 -21 29 -28 -5 -40 -3 -40 5 0 22 77 177 122 247 25 37 78 103 118 146 l73 78 -36 -3 c-20 -1 -40 1 -44 6 -9 9 82 97 158 152 72 53 185 119 272 159 l70 32 -67 8 c-108 11 -102 32 53 185 160 157 330 264 527 330 94 32 225 60 281 60 48 0 35 12 -44 42 -118 45 -205 68 -322 83 -134 18 -233 18 -352 0z m-1259 -1092 c0 -5 -7 -46 -14 -93 -8 -47 -17 -126 -21 -176 l-7 -91 -102 -6 c-116 -8 -239 -33 -364 -76 -47 -17 -87 -29 -87 -28 -1 1 -13 27 -28 57 -14 31 -43 75 -63 98 -36 42 -36 43 -18 64 65 71 233 161 379 203 131 37 325 65 325 48z m-1011 -228 c67 -33 134 -104 171 -179 26 -53 31 -72 28 -122 -3 -67 3 -64 -110 -43 -52 10 -75 10 -107 1 -38 -12 -77 -39 -68 -49 3 -2 59 -15 125 -29 198 -41 302 -82 302 -121 0 -8 -34 -50 -75 -93 -41 -43 -75 -84 -75 -90 0 -7 16 -26 35 -42 19 -17 39 -46 45 -64 10 -30 8 -37 -24 -81 -67 -94 -72 -185 -13 -244 58 -59 227 -119 333 -119 19 0 34 -5 34 -11 0 -17 -599 -6 -671 13 -82 21 -145 62 -169 107 -20 40 -40 168 -40 261 0 86 -6 97 -59 115 -111 37 -117 70 -36 200 18 28 59 82 93 120 34 39 62 78 62 88 0 10 -13 30 -30 44 -36 30 -40 75 -10 133 17 33 194 230 207 230 2 0 25 -11 52 -25z m980 -352 c7 -71 15 -144 17 -163 l6 -35 -227 0 -226 0 -13 45 c-8 25 -23 69 -35 98 -12 30 -19 57 -16 62 8 13 151 65 230 84 39 9 106 20 150 25 44 5 85 9 91 10 6 0 15 -48 23 -126z m74 -391 c15 -48 43 -117 62 -154 18 -38 32 -68 32 -68 -1 0 -27 10 -57 21 -30 12 -93 29 -140 39 l-85 17 -6 56 c-6 56 -32 108 -69 142 -11 10 -20 22 -20 27 0 4 57 8 128 8 l127 0 28 -88z m-406 37 c51 -24 86 -67 103 -124 33 -111 -73 -234 -200 -235 -55 0 -138 37 -168 74 -74 95 -45 221 64 283 52 30 141 31 201 2z"
       id="path3731" />
    <path
       d="M4383 1855 c-170 -37 -317 -160 -391 -327 -60 -138 -69 -361 -19 -505 72 -210 221 -341 429 -381 l86 -16 5 -38 c12 -91 76 -174 167 -217 50 -24 65 -26 170 -25 63 1 138 8 165 15 45 13 50 17 53 44 l3 31 -99 -4 c-85 -4 -104 -1 -139 16 -64 33 -115 102 -128 174 l-7 36 69 33 c91 45 206 159 250 249 50 103 66 180 66 310 0 133 -16 208 -70 319 -108 220 -363 340 -610 286z m265 -90 c95 -52 155 -138 194 -283 28 -102 30 -351 5 -455 -49 -198 -164 -315 -321 -325 -87 -5 -139 8 -202 51 -63 43 -117 123 -150 222 -36 107 -46 335 -20 466 34 170 118 295 229 338 78 31 193 25 265 -14z"
       id="path3733" />
    <path
       d="M2920 1810 c0 -20 5 -30 15 -30 38 0 122 -42 133 -66 9 -18 12 -157 12 -480 l0 -455 -24 -24 c-16 -16 -40 -25 -80 -30 -53 -7 -56 -9 -56 -36 l0 -29 460 0 c361 0 460 3 461 13 0 6 6 85 12 175 l12 162 -27 0 c-24 0 -32 -9 -59 -62 -54 -108 -108 -178 -148 -196 -48 -20 -264 -29 -315 -12 -20 6 -42 21 -49 33 -9 16 -13 135 -15 463 -4 540 -9 520 121 539 43 7 47 9 47 36 l0 29 -250 0 -250 0 0 -30z"
       id="path3735" />
    <path
       d="M5210 1812 c0 -26 5 -29 52 -42 31 -7 64 -25 80 -41 l28 -27 0 -462 0 -461 -24 -24 c-16 -16 -40 -25 -80 -30 -53 -7 -56 -9 -56 -36 l0 -29 460 0 c361 0 460 3 461 13 0 6 6 85 12 175 l12 162 -27 0 c-24 0 -32 -9 -59 -62 -54 -108 -108 -178 -148 -196 -48 -20 -264 -29 -315 -12 -20 6 -42 21 -49 33 -9 16 -13 135 -15 463 -4 540 -9 520 121 539 43 7 47 9 47 36 l0 29 -250 0 -250 0 0 -28z"
       id="path3737" />
  </g>
  <path
     style="fill:#c8beb7;stroke-width:0.81424934"
     d="m 627.13486,379.00775 c -6.54891,-2.19954 -12.28114,-5.75431 -17.13239,-10.62446 -5.8874,-5.91033 -9.19347,-12.24428 -10.40411,-19.9328 l -0.87809,-5.57653 -7.77744,-1.45316 c -21.19302,-3.95976 -35.5223,-11.91402 -46.94973,-26.06202 -14.13853,-17.50456 -20.43653,-41.6511 -17.47911,-67.01496 2.41874,-20.74395 9.15237,-35.38684 22.39391,-48.69757 14.88616,-14.96395 33.41722,-22.18825 54.56022,-21.2702 26.38877,1.14584 49.43375,15.5058 61.08423,38.06327 7.97113,15.43359 10.86987,29.80944 9.93081,49.25025 -0.59176,12.25052 -1.81942,18.64611 -5.31803,27.70439 -3.62262,9.37938 -7.78176,15.93895 -14.99913,23.65584 -7.81997,8.36119 -15.18624,13.96971 -23.9777,18.25613 -3.69466,1.80138 -6.71756,3.73752 -6.71756,4.30253 0,0.56502 0.67525,3.46244 1.50055,6.43874 2.71439,9.78895 9.21486,17.67372 17.81795,21.61235 4.27888,1.95893 4.95143,2.02467 17.45898,1.70635 l 13.00867,-0.33105 -0.52499,2.88206 c -0.71343,3.9166 -1.87649,4.89506 -7.44283,6.26152 -6.86989,1.68645 -33.85572,2.27302 -38.15421,0.82932 z m -12.2271,-48.08577 c 13.89138,-5.04229 23.6437,-16.32526 29.63906,-34.29094 3.18549,-9.54564 4.16921,-17.93697 4.14975,-35.39849 -0.0185,-16.55912 -1.44991,-28.70942 -4.45932,-37.85069 -7.16109,-21.75224 -19.87197,-33.9184 -37.98473,-36.35692 -25.50796,-3.43413 -43.44626,11.51751 -51.75295,43.13625 -1.77154,6.74324 -2.11601,10.12902 -2.4549,24.12889 -0.73091,30.19519 2.93779,46.26551 14.18087,62.11767 5.8827,8.29431 15.67162,14.86019 24.60391,16.50298 6.44846,1.18598 17.94893,0.2361 24.07831,-1.98875 z"
     id="path3751"
     inkscape:connector-curvature="0"
     transform="scale(0.75)" />
  <path
     style="fill:#c8beb7;stroke-width:0.81424934"
     d="m 695.28143,335.10433 0.25038,-3.46056 6.78736,-1.31973 c 4.67851,-0.90969 7.84087,-2.06015 10.17811,-3.70278 l 3.39076,-2.38304 0.20869,-62.20737 0.20869,-62.20738 -2.65144,-2.75983 c -3.19692,-3.32762 -5.85578,-4.78373 -12.82955,-7.02602 l -5.29262,-1.70174 -0.25038,-3.46056 -0.25038,-3.46056 h 33.02391 33.02392 l -0.0125,2.64631 c -0.007,1.45547 -0.30663,3.10973 -0.66617,3.67614 -0.35953,0.5664 -3.70381,1.56609 -7.43174,2.22152 -3.72793,0.65543 -7.6725,1.77776 -8.76571,2.49407 -2.81444,1.84409 -4.1853,5.71321 -5.09977,14.39363 -1.6316,15.48759 -0.3463,113.38859 1.53477,116.90341 0.52445,0.97996 2.49856,2.60736 4.38689,3.61645 3.22068,1.72108 4.36637,1.83106 18.49695,1.7756 16.19944,-0.0636 24.01181,-1.10344 28.3524,-3.77381 3.66788,-2.25652 10.4279,-11.47586 15.99637,-21.81592 5.12097,-9.5091 6.8345,-11.39949 10.33304,-11.39949 2.24126,0 2.36273,0.16411 1.95886,2.64631 -0.23681,1.45547 -1.0222,11.44021 -1.74529,22.1883 -0.72309,10.74809 -1.492,19.72519 -1.70867,19.94911 -0.78954,0.81592 -33.45361,1.47294 -77.05032,1.54981 l -44.62697,0.0787 z"
     id="path3753"
     inkscape:connector-curvature="0"
     transform="scale(0.75)" />
  <path
     style="fill:#2b2200;stroke-width:0.81424934"
     d="m 389.93792,335.10433 0.25038,-3.46056 6.78735,-1.31973 c 4.68114,-0.9102 7.83957,-2.0596 10.17812,-3.70396 l 3.39076,-2.38422 -0.0285,-61.84312 c -0.0208,-45.14468 -0.28408,-62.4317 -0.97509,-64.02295 -1.16121,-2.67399 -7.003,-6.20389 -14.06004,-8.49577 l -5.29262,-1.71885 -0.25038,-3.37021 -0.25038,-3.3702 h 33.02391 33.02392 l -0.0125,2.64631 c -0.007,1.45547 -0.30663,3.10973 -0.66617,3.67614 -0.35953,0.5664 -3.70382,1.56609 -7.43174,2.22152 -3.72793,0.65543 -7.6725,1.77776 -8.76571,2.49407 -2.81444,1.84409 -4.1853,5.71321 -5.09977,14.39363 -1.61479,15.32798 -0.33277,113.41389 1.5278,116.89039 0.52829,0.98711 2.50552,2.62038 4.39386,3.62947 3.22067,1.72108 4.36637,1.83106 18.49695,1.7756 16.19944,-0.0636 24.01181,-1.10344 28.3524,-3.77381 3.66788,-2.25652 10.4279,-11.47586 15.99636,-21.81592 5.12098,-9.5091 6.83451,-11.39949 10.33305,-11.39949 2.24126,0 2.36273,0.16411 1.95886,2.64631 -0.23681,1.45547 -1.0222,11.44021 -1.74529,22.1883 -0.7231,10.74809 -1.492,19.72519 -1.70867,19.94911 -0.78954,0.81592 -33.45362,1.47294 -77.05032,1.54981 l -44.62697,0.0787 z"
     id="path3755"
     inkscape:connector-curvature="0"
     transform="scale(0.75)" />
  <path
     style="fill:#2b2200;stroke-width:0.81424934"
     d="m 624.06154,377.36077 c -8.78282,-3.71542 -16.8676,-11.11558 -20.9115,-19.14069 -0.98413,-1.95301 -2.33312,-6.15895 -2.99774,-9.34653 -1.24229,-5.95801 -1.96019,-7.0169 -4.77317,-7.04025 -3.44589,-0.0286 -18.21092,-4.0875 -24.45584,-6.72288 -19.28063,-8.13649 -33.65518,-24.67827 -40.51367,-46.62187 -3.29429,-10.54003 -4.09275,-17.66429 -3.62395,-32.33478 0.81424,-25.48028 7.17326,-40.93777 23.37732,-56.82553 8.432,-8.2674 17.01392,-13.59183 27.70978,-17.19183 6.77718,-2.28105 9.10605,-2.65071 18.80071,-2.98419 8.41959,-0.28962 12.69967,-0.0495 17.90069,1.0044 28.76104,5.82773 49.03469,25.70069 57.17191,56.04195 1.60316,5.97773 1.78914,8.60405 1.74234,24.6055 -0.0497,16.97503 -0.16522,18.28198 -2.20619,24.94744 -4.2804,13.97901 -8.63345,21.5693 -18.09139,31.54548 -7.12852,7.51911 -12.63974,11.77897 -21.98473,16.99296 l -7.32825,4.08876 0.13296,3.77034 c 0.42783,12.13247 15.09855,27.76922 25.65763,27.3471 1.93731,-0.0774 7.82773,-0.10683 13.08982,-0.0653 l 9.56743,0.0755 v 2.03562 c 0,2.63659 -2.36173,4.94838 -6.25756,6.12524 -1.70847,0.51611 -10.80096,1.10581 -20.20554,1.31047 -16.72056,0.36385 -17.20337,0.32805 -21.80106,-1.61692 z m -10.56536,-45.67998 c 2.35115,-0.72682 4.27481,-1.69533 4.27481,-2.15225 0,-0.45691 0.35278,-0.61272 0.78396,-0.34624 2.27074,1.40339 13.96019,-8.76505 18.69548,-16.26285 5.0688,-8.02588 10.56703,-22.56636 9.54258,-25.23604 -0.2375,-0.6189 -0.01,-1.26603 0.50664,-1.43808 1.03621,-0.34541 1.82465,-41.62252 0.8259,-43.23853 -0.30085,-0.48679 -0.44706,-2.26934 -0.3249,-3.96121 0.12215,-1.69187 -0.13803,-3.07612 -0.57818,-3.07612 -0.44016,0 -0.61866,-0.69455 -0.39667,-1.54345 1.32887,-5.08163 -7.64392,-26.06252 -14.37655,-33.61636 -4.02297,-4.51369 -12.74244,-11.01689 -13.60922,-10.15011 -0.24676,0.24676 -1.0019,-0.10459 -1.67809,-0.78077 -0.67618,-0.67619 -1.7318,-1.03665 -2.34581,-0.80104 -0.61401,0.23562 -1.11638,0.0307 -1.11638,-0.45526 0,-0.48601 -0.73283,-0.69202 -1.6285,-0.4578 -0.89568,0.23422 -1.6285,0.051 -1.6285,-0.40708 0,-0.45812 -0.91603,-0.65783 -2.03563,-0.44381 -1.11959,0.21403 -2.03562,0.0735 -2.03562,-0.3122 0,-1.1566 -12.33949,-0.79155 -17.34897,0.51325 -11.72529,3.05406 -21.14043,11.12145 -27.58391,23.63538 -4.54738,8.83151 -8.22558,20.42272 -8.32643,26.23928 -0.0407,2.34845 -0.33428,4.27211 -0.65236,4.27481 -0.31809,0.003 -0.46186,9.0736 -0.3195,20.15757 0.19609,15.26613 0.60054,21.73216 1.668,26.66667 4.88983,22.60399 17.1435,38.3858 34.24256,44.10186 4.27833,1.43021 19.6544,0.88055 25.44529,-0.90962 z"
     id="path3757"
     inkscape:connector-curvature="0"
     transform="scale(0.75)" />
  <path
     style="fill:#2b2200;stroke-width:0.81424934"
     d="m 695.71378,335.41576 c 0.25061,-1.62676 0.56634,-3.08976 0.70162,-3.25111 0.13529,-0.16135 2.7247,-0.81296 5.75426,-1.448 3.02956,-0.63505 5.7067,-1.41906 5.94921,-1.74226 0.24251,-0.32319 0.99054,-0.70807 1.6623,-0.85527 0.67176,-0.1472 2.41221,-1.00151 3.86768,-1.89847 l 2.64632,-1.63082 v -62.95357 -62.95357 l -2.86087,-2.51187 c -3.44479,-3.02456 -5.88569,-4.30676 -11.79562,-6.19622 -5.41119,-1.73 -5.37292,-1.69458 -5.94964,-5.50641 l -0.46197,-3.05343 h 33.01652 33.01653 l -0.57036,3.05343 c -0.3137,1.67939 -0.6723,3.15752 -0.79689,3.28473 -0.12459,0.12721 -3.60508,1.03385 -7.73442,2.01477 -5.09057,1.20924 -8.11712,2.39269 -9.40005,3.67562 -2.09475,2.09475 -4.05458,8.90743 -3.45888,12.02361 0.21068,1.1021 0.0675,2.00382 -0.31829,2.00382 -0.38573,0 -0.69572,19.87786 -0.68886,44.17303 0.007,24.29516 0.28166,43.74889 0.61068,43.23051 0.32902,-0.5184 0.63527,4.42817 0.68054,10.99236 0.12915,18.72397 -0.0264,17.60144 2.76549,19.95069 1.37246,1.15485 3.85805,2.47818 5.52353,2.94073 3.11897,0.86622 26.42137,1.2058 27.23036,0.39682 0.24929,-0.24929 2.95306,-0.57434 6.00837,-0.72234 3.14465,-0.15233 5.68693,-0.66449 5.85887,-1.18031 0.16706,-0.50118 0.6281,-0.71077 1.02453,-0.46575 1.11216,0.68734 4.97718,-1.6307 7.73767,-4.64067 3.76153,-4.10147 6.05609,-7.4815 12.37609,-18.23074 5.68444,-9.66826 9.0179,-13.03803 10.96822,-11.08771 0.75633,0.75632 -2.07128,43.00859 -2.9361,43.87342 -0.42312,0.42312 -19.51542,0.71982 -87.36143,1.35761 l -33.52107,0.31511 z"
     id="path3759"
     inkscape:connector-curvature="0"
     transform="scale(0.75)" />
  <path
     style="fill:#280b0b;stroke-width:0.81424934"
     d="m 389.79364,336.04728 c 0.007,-1.52626 0.28167,-3.16574 0.61069,-3.6433 0.32902,-0.47756 3.52951,-1.49359 7.11221,-2.25786 4.02914,-0.85951 7.75642,-2.25144 9.77099,-3.64891 l 3.257,-2.25933 v -52.88739 c 0,-29.08806 -0.13185,-57.38183 -0.29299,-62.87504 l -0.293,-9.98766 -3.28209,-2.80935 c -1.80515,-1.54514 -5.88705,-3.79025 -9.07087,-4.98913 -7.31746,-2.75541 -7.82441,-3.17813 -7.82441,-6.52438 v -2.75017 h 32.9771 32.9771 l -0.0125,2.23918 c -0.007,1.23156 -0.28912,2.67428 -0.62726,3.20606 -0.72661,1.14273 -4.10693,2.51081 -7.74819,3.13583 -8.87737,1.52379 -10.99457,3.27693 -12.74544,10.55379 -1.44377,6.00055 -1.99948,59.95797 -0.9592,93.13712 0.95751,30.53975 0.93163,30.39438 5.955,33.44928 5.57595,3.39093 36.30662,2.78659 44.53877,-0.8759 4.96681,-2.20973 9.56226,-7.74191 17.44103,-20.99615 3.49313,-5.8764 7.23084,-11.26076 8.30602,-11.96524 2.92024,-1.91341 4.90628,-1.19641 4.78138,1.72617 -0.24324,5.69191 -2.83867,38.3985 -3.17187,39.97063 -0.27946,1.31857 -1.18068,1.84259 -3.83758,2.23135 -1.90979,0.27944 -29.21281,0.75272 -60.67337,1.05174 l -57.20102,0.54367 z"
     id="path3825"
     inkscape:connector-curvature="0"
     transform="scale(0.75)" />
  <path
     style="fill:#280b0b;stroke-width:0.81424934"
     d="m 622.11483,375.97074 c -9.83705,-5.01612 -17.77523,-13.88159 -20.31881,-22.6923 -3.37105,-11.67702 -3.01369,-11.19303 -9.03928,-12.24234 -7.20001,-1.25382 -19.84087,-5.346 -25.87633,-8.37685 -19.93324,-10.00992 -34.01818,-29.99093 -38.73993,-54.9568 -1.51317,-8.0007 -0.52215,-34.69413 1.60154,-43.13829 5.9784,-23.77109 24.30826,-43.47294 48.53788,-52.17092 4.9892,-1.79103 7.38892,-2.09108 19.24981,-2.4069 11.77325,-0.31349 14.42019,-0.14077 20.18564,1.31719 25.73318,6.50737 43.50133,23.84786 52.67685,51.40894 2.28074,6.85081 2.30433,7.1279 2.32239,27.27735 0.0182,20.31296 0.0133,20.37095 -2.32907,27.27736 -4.91164,14.48219 -10.23444,22.78067 -21.43711,33.42142 -5.11521,4.85864 -9.94368,8.44103 -16.41193,12.17654 l -9.16448,5.29262 0.39792,4.27723 c 0.82762,8.89632 8.26513,19.57988 17.20718,24.71714 4.03748,2.31955 4.18435,2.33901 17.70992,2.34659 7.91104,0.004 13.63868,0.32733 13.63868,0.76888 0,2.51668 -1.94911,5.16091 -4.67676,6.34465 -2.45567,1.06571 -6.7504,1.38562 -21.78634,1.62285 l -18.72774,0.29546 z m -13.11141,-43.06529 c 2.56715,-0.42047 5.86486,-1.28289 7.32825,-1.91648 1.46338,-0.63358 3.65031,-1.55381 4.85985,-2.04495 3.64739,-1.48105 13.88509,-11.84302 17.15631,-17.36456 4.60176,-7.76739 7.99051,-17.29466 9.22686,-25.94078 1.44745,-10.1224 1.4446,-37.75242 -0.005,-49.26209 -1.9395,-15.39678 -7.92885,-28.32116 -17.54631,-37.8626 -7.2369,-7.17969 -10.12308,-8.797 -19.58075,-10.97233 -11.88559,-2.73376 -23.90954,-1.04119 -32.78724,4.61536 -12.62864,8.0465 -22.7888,27.00408 -25.13513,46.89899 -1.22829,10.41482 -0.43804,43.43567 1.21519,50.77729 4.48075,19.89797 16.36216,35.75082 31.44577,41.95678 5.00279,2.05832 15.16119,2.53395 23.82208,1.11537 z"
     id="path3827"
     inkscape:connector-curvature="0"
     transform="scale(0.75)" />
  <path
     style="fill:#280b0b;stroke-width:0.81424934"
     d="m 695.9514,335.91858 c 0.0194,-2.85047 0.87412,-3.55317 5.68728,-4.67573 2.4631,-0.57447 6.76844,-2.15158 9.56743,-3.5047 l 5.08906,-2.46021 v -63.71975 -63.71975 l -3.9206,-2.87798 c -2.15633,-1.58289 -6.42405,-3.78669 -9.48383,-4.89733 -6.0368,-2.19124 -6.9204,-3.00733 -6.93934,-6.40919 l -0.0125,-2.23918 h 32.48423 32.48422 l -0.6573,2.91438 c -0.36151,1.60291 -0.78094,3.01385 -0.93206,3.13543 -0.15112,0.12157 -2.80213,0.84305 -5.89112,1.60327 -9.33458,2.29732 -10.93159,3.23352 -12.94144,7.58659 l -1.79844,3.89519 0.0904,59.4402 c 0.10237,67.30002 -0.14668,64.49337 6.01645,67.80211 3.61396,1.9402 3.89823,1.9621 20.76336,1.59992 21.07658,-0.45262 24.37431,-1.23054 30.24835,-7.13545 2.21586,-2.2275 6.73617,-8.51177 10.04514,-13.96505 6.58068,-10.84516 10.09218,-15.32443 12.01351,-15.32443 1.0805,0 1.17564,1.28214 0.70989,9.56743 -1.27909,22.75379 -2.25811,32.36735 -3.38618,33.25083 -1.09984,0.86137 -57.78121,1.96245 -101.13198,1.96457 l -18.11705,8.9e-4 z"
     id="path3829"
     inkscape:connector-curvature="0"
     transform="scale(0.75)" />
</svg>
