<?xml version="1.0" encoding="UTF-8" standalone="no"?>
<svg
   xmlns:dc="http://purl.org/dc/elements/1.1/"
   xmlns:cc="http://creativecommons.org/ns#"
   xmlns:rdf="http://www.w3.org/1999/02/22-rdf-syntax-ns#"
   xmlns:svg="http://www.w3.org/2000/svg"
   xmlns="http://www.w3.org/2000/svg"
   xmlns:sodipodi="http://sodipodi.sourceforge.net/DTD/sodipodi-0.dtd"
   xmlns:inkscape="http://www.inkscape.org/namespaces/inkscape"
   version="1.0"
   width="602.47778pt"
   height="297.43857pt"
   viewBox="0 0 602.47778 297.43857"
   preserveAspectRatio="xMidYMid meet"
   id="svg3741"
   sodipodi:docname="05-lql-full.svg"
   inkscape:version="0.92.5 (2060ec1f9f, 2020-04-08)">
  <metadata
     id="metadata3747">
    <rdf:RDF>
      <cc:Work
         rdf:about="">
        <dc:format>image/svg+xml</dc:format>
        <dc:type
           rdf:resource="http://purl.org/dc/dcmitype/StillImage" />
      </cc:Work>
    </rdf:RDF>
  </metadata>
  <defs
     id="defs3745" />
  <sodipodi:namedview
     pagecolor="#ffffff"
     bordercolor="#666666"
     borderopacity="1"
     objecttolerance="10"
     gridtolerance="10"
     guidetolerance="10"
     inkscape:pageopacity="0"
     inkscape:pageshadow="2"
     inkscape:window-width="1366"
     inkscape:window-height="705"
     id="namedview3743"
     showgrid="false"
     inkscape:zoom="1.228125"
     inkscape:cx="419.97037"
     inkscape:cy="225.35472"
     inkscape:window-x="-8"
     inkscape:window-y="-8"
     inkscape:window-maximized="1"
     inkscape:current-layer="svg3741" />
  <g
     transform="matrix(0.1,0,0,-0.1,-13.022222,312.85)"
     id="g3739"
     style="fill:#000000;stroke:none">
    <path
       d="m 3199,3115 c -106,-15 -203,-46 -291,-93 -37,-20 -71,-33 -74,-29 -4,4 -2,28 4,54 5,27 9,49 7,51 -5,5 -84,-46 -131,-85 -79,-64 -217,-252 -247,-336 -11,-30 -24,-11 -36,53 l -12,60 -37,-47 c -62,-79 -106,-153 -150,-251 -23,-52 -44,-101 -46,-110 -1,-10 -8,-28 -13,-42 -6,-14 -16,-51 -23,-83 -8,-32 -18,-56 -24,-54 -6,2 -20,40 -32,85 -12,46 -23,85 -26,88 -7,7 -75,-156 -95,-228 l -16,-58 h -80 c -227,0 -494,-74 -688,-191 -45,-27 -83,-49 -84,-49 -1,0 -33,20 -71,45 -37,25 -74,45 -81,45 -20,0 -17,7 32,70 55,72 122,128 226,191 84,50 256,122 322,134 29,6 36,10 27,19 -7,7 -78,11 -218,11 -194,0 -214,-2 -314,-28 C 548,2212 210,1866 140,1427 120,1306 132,1097 164,985 357,326 1126,-20 1812,242 c 43,16 80,33 83,38 6,9 -25,102 -53,155 -37,73 -109,162 -155,191 -26,16 -46,34 -47,39 0,6 15,20 34,33 19,13 47,42 62,64 28,40 29,40 79,34 88,-10 207,-46 301,-90 76,-36 114,-64 225,-163 156,-139 205,-195 262,-303 l 18,-35 -5,40 c -6,45 -64,169 -95,202 -12,12 -21,25 -21,29 0,8 -116,143 -203,237 -75,81 -119,150 -153,243 -153,419 -83,928 180,1299 104,148 252,305 377,400 35,27 66,52 69,55 5,6 185,116 258,157 23,14 42,20 42,15 0,-11 -20,-26 -145,-109 -141,-94 -353,-294 -443,-418 -147,-203 -235,-395 -281,-610 -46,-214 -51,-453 -15,-650 19,-98 18,-98 47,26 26,110 153,365 218,435 28,30 24,37 -21,29 -28,-5 -40,-3 -40,5 0,22 77,177 122,247 25,37 78,103 118,146 l 73,78 -36,-3 c -20,-1 -40,1 -44,6 -9,9 82,97 158,152 72,53 185,119 272,159 l 70,32 -67,8 c -108,11 -102,32 53,185 160,157 330,264 527,330 94,32 225,60 281,60 48,0 35,12 -44,42 -118,45 -205,68 -322,83 -134,18 -233,18 -352,0 z M 1940,2023 c 0,-5 -7,-46 -14,-93 -8,-47 -17,-126 -21,-176 l -7,-91 -102,-6 c -116,-8 -239,-33 -364,-76 -47,-17 -87,-29 -87,-28 -1,1 -13,27 -28,57 -14,31 -43,75 -63,98 -36,42 -36,43 -18,64 65,71 233,161 379,203 131,37 325,65 325,48 z M 929,1795 c 67,-33 134,-104 171,-179 26,-53 31,-72 28,-122 -3,-67 3,-64 -110,-43 -52,10 -75,10 -107,1 -38,-12 -77,-39 -68,-49 3,-2 59,-15 125,-29 198,-41 302,-82 302,-121 0,-8 -34,-50 -75,-93 -41,-43 -75,-84 -75,-90 0,-7 16,-26 35,-42 19,-17 39,-46 45,-64 10,-30 8,-37 -24,-81 -67,-94 -72,-185 -13,-244 58,-59 227,-119 333,-119 19,0 34,-5 34,-11 0,-17 -599,-6 -671,13 -82,21 -145,62 -169,107 -20,40 -40,168 -40,261 0,86 -6,97 -59,115 -111,37 -117,70 -36,200 18,28 59,82 93,120 34,39 62,78 62,88 0,10 -13,30 -30,44 -36,30 -40,75 -10,133 17,33 194,230 207,230 2,0 25,-11 52,-25 z m 980,-352 c 7,-71 15,-144 17,-163 l 6,-35 h -227 -226 l -13,45 c -8,25 -23,69 -35,98 -12,30 -19,57 -16,62 8,13 151,65 230,84 39,9 106,20 150,25 44,5 85,9 91,10 6,0 15,-48 23,-126 z m 74,-391 c 15,-48 43,-117 62,-154 18,-38 32,-68 32,-68 -1,0 -27,10 -57,21 -30,12 -93,29 -140,39 l -85,17 -6,56 c -6,56 -32,108 -69,142 -11,10 -20,22 -20,27 0,4 57,8 128,8 h 127 z m -406,37 c 51,-24 86,-67 103,-124 33,-111 -73,-234 -200,-235 -55,0 -138,37 -168,74 -74,95 -45,221 64,283 52,30 141,31 201,2 z"
       id="path3731"
       inkscape:connector-curvature="0" />
    <path
       d="m 4383,1855 c -170,-37 -317,-160 -391,-327 -60,-138 -69,-361 -19,-505 72,-210 221,-341 429,-381 l 86,-16 5,-38 c 12,-91 76,-174 167,-217 50,-24 65,-26 170,-25 63,1 138,8 165,15 45,13 50,17 53,44 l 3,31 -99,-4 c -85,-4 -104,-1 -139,16 -64,33 -115,102 -128,174 l -7,36 69,33 c 91,45 206,159 250,249 50,103 66,180 66,310 0,133 -16,208 -70,319 -108,220 -363,340 -610,286 z m 265,-90 c 95,-52 155,-138 194,-283 28,-102 30,-351 5,-455 -49,-198 -164,-315 -321,-325 -87,-5 -139,8 -202,51 -63,43 -117,123 -150,222 -36,107 -46,335 -20,466 34,170 118,295 229,338 78,31 193,25 265,-14 z"
       id="path3733"
       inkscape:connector-curvature="0" />
    <path
       d="m 2920,1810 c 0,-20 5,-30 15,-30 38,0 122,-42 133,-66 9,-18 12,-157 12,-480 V 779 l -24,-24 c -16,-16 -40,-25 -80,-30 -53,-7 -56,-9 -56,-36 v -29 h 460 c 361,0 460,3 461,13 0,6 6,85 12,175 l 12,162 h -27 c -24,0 -32,-9 -59,-62 -54,-108 -108,-178 -148,-196 -48,-20 -264,-29 -315,-12 -20,6 -42,21 -49,33 -9,16 -13,135 -15,463 -4,540 -9,520 121,539 43,7 47,9 47,36 v 29 h -250 -250 z"
       id="path3735"
       inkscape:connector-curvature="0" />
    <path
       d="m 5210,1812 c 0,-26 5,-29 52,-42 31,-7 64,-25 80,-41 l 28,-27 V 1240 779 l -24,-24 c -16,-16 -40,-25 -80,-30 -53,-7 -56,-9 -56,-36 v -29 h 460 c 361,0 460,3 461,13 0,6 6,85 12,175 l 12,162 h -27 c -24,0 -32,-9 -59,-62 -54,-108 -108,-178 -148,-196 -48,-20 -264,-29 -315,-12 -20,6 -42,21 -49,33 -9,16 -13,135 -15,463 -4,540 -9,520 121,539 43,7 47,9 47,36 v 29 h -250 -250 z"
       id="path3737"
       inkscape:connector-curvature="0" />
  </g>
  <path
     style="fill:#c8beb7;stroke-width:0.61068702"
     d="m 457.32892,277.10581 c -4.91168,-1.64965 -9.21085,-4.31573 -12.84929,-7.96834 -4.41555,-4.43275 -6.8951,-9.18321 -7.80308,-14.9496 l -0.65857,-4.1824 -5.83308,-1.08987 c -15.89476,-2.96982 -26.64172,-8.93552 -35.2123,-19.54652 -10.60389,-13.12842 -15.32739,-31.23832 -13.10933,-50.26122 1.81406,-15.55796 6.86428,-26.54013 16.79543,-36.52317 11.16462,-11.22297 25.06292,-16.64119 40.92017,-15.95265 19.79158,0.85938 37.07531,11.62935 45.81317,28.54745 5.97835,11.57519 8.1524,22.35708 7.44811,36.93769 -0.44382,9.18789 -1.36457,13.98458 -3.98852,20.77829 -2.71697,7.03453 -5.83632,11.95421 -11.24935,17.74188 -5.86498,6.27089 -11.38968,10.47728 -17.98328,13.6921 -2.77099,1.35103 -5.03817,2.80314 -5.03817,3.22689 0,0.42377 0.50644,2.59683 1.12542,4.82906 2.03579,7.34171 6.91114,13.25529 13.36346,16.20926 3.20916,1.4692 3.71357,1.5185 13.09423,1.27976 l 9.75651,-0.24828 -0.39375,2.16154 c -0.53507,2.93745 -1.40736,3.6713 -5.58212,4.69614 -5.15242,1.26484 -25.39179,1.70477 -28.61566,0.62199 z m -9.17032,-36.06433 c 10.41853,-3.78171 17.73277,-12.24394 22.22929,-25.7182 2.38912,-7.15923 3.12691,-13.45273 3.11232,-26.54887 -0.0139,-12.41934 -1.08744,-21.53206 -3.34449,-28.38801 -5.37082,-16.31419 -14.90398,-25.4388 -28.48855,-27.2677 -19.13097,-2.57559 -32.5847,8.63814 -38.81471,32.35219 -1.32866,5.05743 -1.58701,7.59677 -1.84118,18.09667 -0.54818,22.64639 2.20334,34.69913 10.63565,46.58825 4.41203,6.22073 11.75372,11.14514 18.45294,12.37724 4.83634,0.88948 13.46169,0.17707 18.05873,-1.49157 z"
     id="path3751"
     inkscape:connector-curvature="0" />
  <path
     style="fill:#c8beb7;stroke-width:0.61068702"
     d="m 508.43885,244.17825 0.18779,-2.59542 5.09052,-0.9898 c 3.50888,-0.68227 5.88065,-1.54511 7.63358,-2.77709 l 2.54307,-1.78728 0.15652,-46.65552 0.15651,-46.65554 -1.98858,-2.06987 c -2.39769,-2.49572 -4.39183,-3.5878 -9.62216,-5.26952 l -3.96946,-1.2763 -0.18779,-2.59542 -0.18778,-2.59542 h 24.76793 24.76794 l -0.009,1.98473 c -0.005,1.09161 -0.22997,2.3323 -0.49962,2.75711 -0.26965,0.4248 -2.77786,1.17457 -5.57381,1.66614 -2.79595,0.49157 -5.75437,1.33332 -6.57428,1.87055 -2.11083,1.38307 -3.13898,4.28491 -3.82483,10.79522 -1.2237,11.6157 -0.25972,85.04144 1.15108,87.67756 0.39334,0.73497 1.87392,1.95552 3.29017,2.71234 2.41551,1.29081 3.27477,1.37329 13.87271,1.3317 12.14958,-0.0477 18.00886,-0.82758 21.2643,-2.83036 2.75091,-1.69239 7.82092,-8.6069 11.99728,-16.36194 3.84072,-7.13183 5.12587,-8.54962 7.74978,-8.54962 1.68094,0 1.77204,0.12308 1.46914,1.98473 -0.17761,1.09161 -0.76665,8.58016 -1.30897,16.64123 -0.54231,8.06107 -1.119,14.79389 -1.2815,14.96183 -0.59215,0.61194 -25.09021,1.10471 -57.78774,1.16236 l -33.47023,0.059 z"
     id="path3753"
     inkscape:connector-curvature="0" />
  <path
     style="fill:#2b2200;stroke-width:0.61068702"
     d="m 279.43122,244.17825 0.18778,-2.59542 5.09052,-0.9898 c 3.51085,-0.68265 5.87967,-1.5447 7.63359,-2.77797 l 2.54307,-1.78817 -0.0214,-46.38234 c -0.0156,-33.85851 -0.21306,-46.82377 -0.73132,-48.01721 -0.8709,-2.00549 -5.25225,-4.65291 -10.54503,-6.37182 l -3.96946,-1.28914 -0.18779,-2.52766 -0.18778,-2.52765 h 24.76793 24.76794 l -0.009,1.98473 c -0.005,1.0916 -0.22998,2.3323 -0.49963,2.75711 -0.26965,0.4248 -2.77787,1.17457 -5.57381,1.66614 -2.79594,0.49157 -5.75437,1.33332 -6.57428,1.87055 -2.11083,1.38307 -3.13897,4.28491 -3.82483,10.79522 -1.21109,11.49599 -0.24957,85.06042 1.14585,87.66779 0.39622,0.74034 1.87914,1.96529 3.2954,2.72211 2.4155,1.29081 3.27478,1.37329 13.87271,1.3317 12.14958,-0.0477 18.00886,-0.82758 21.2643,-2.83036 2.75091,-1.69239 7.82093,-8.6069 11.99727,-16.36194 3.84074,-7.13183 5.12588,-8.54962 7.74979,-8.54962 1.68094,0 1.77205,0.12308 1.46914,1.98473 -0.1776,1.09161 -0.76665,8.58016 -1.30896,16.64123 -0.54233,8.06107 -1.119,14.79389 -1.28151,14.96183 -0.59215,0.61194 -25.09021,1.10471 -57.78774,1.16236 l -33.47022,0.059 z"
     id="path3755"
     inkscape:connector-curvature="0" />
  <path
     style="fill:#2b2200;stroke-width:0.61068702"
     d="m 455.02393,275.87058 c -6.58711,-2.78657 -12.6507,-8.33669 -15.68362,-14.35552 -0.7381,-1.46476 -1.74984,-4.61921 -2.24831,-7.0099 -0.93171,-4.46851 -1.47014,-5.26267 -3.57987,-5.28019 -2.58442,-0.0214 -13.65819,-3.06562 -18.34188,-5.04216 -14.46048,-6.10236 -25.24139,-18.5087 -30.38526,-34.9664 -2.47071,-7.90502 -3.06956,-13.24822 -2.71796,-24.25108 0.61068,-19.11021 5.37995,-30.70333 17.53299,-42.61915 6.324,-6.20055 12.76044,-10.19387 20.78234,-12.89387 5.08288,-1.71079 6.82953,-1.98804 14.10053,-2.23815 6.31469,-0.21721 9.52475,-0.0371 13.42552,0.7533 21.57078,4.3708 36.77601,19.27552 42.87893,42.03147 1.20237,4.48329 1.34185,6.45303 1.30675,18.45412 -0.0373,12.73127 -0.12391,13.71149 -1.65464,18.71058 -3.2103,10.48426 -6.47509,16.17698 -13.56854,23.65911 -5.34639,5.63933 -9.47981,8.83423 -16.48855,12.74472 l -5.49619,3.06657 0.0997,2.82776 c 0.32088,9.09935 11.32392,20.82691 19.24323,20.51032 1.45298,-0.058 5.87079,-0.0801 9.81736,-0.049 l 7.17557,0.0566 v 1.52672 c 0,1.97744 -1.77129,3.71128 -4.69317,4.59393 -1.28135,0.38708 -8.10072,0.82935 -15.15415,0.98285 -12.54042,0.27289 -12.90253,0.24604 -16.3508,-1.21269 z m -7.92402,-34.25999 c 1.76337,-0.54511 3.20611,-1.2715 3.20611,-1.61419 0,-0.34268 0.26459,-0.45954 0.58797,-0.25968 1.70306,1.05255 10.47014,-6.57378 14.02161,-12.19713 3.8016,-6.01941 7.92527,-16.92477 7.15694,-18.92703 -0.17813,-0.46418 -0.007,-0.94953 0.37998,-1.07856 0.77715,-0.25906 1.36848,-31.21689 0.61942,-32.4289 -0.22564,-0.36509 -0.33529,-1.70201 -0.24367,-2.97091 0.0916,-1.2689 -0.10353,-2.30709 -0.43364,-2.30709 -0.33012,0 -0.46399,-0.52091 -0.2975,-1.15759 0.99665,-3.81122 -5.73294,-19.54689 -10.78241,-25.21227 -3.01723,-3.38526 -9.55683,-8.26266 -10.20692,-7.61258 -0.18507,0.18507 -0.75142,-0.0784 -1.25857,-0.58558 -0.50713,-0.50714 -1.29885,-0.77748 -1.75935,-0.60078 -0.46051,0.17672 -0.83729,0.023 -0.83729,-0.34144 0,-0.36451 -0.54962,-0.51902 -1.22137,-0.34335 -0.67176,0.17566 -1.22138,0.0383 -1.22138,-0.30531 0,-0.34359 -0.68702,-0.49337 -1.52672,-0.33286 -0.83969,0.16052 -1.52672,0.0551 -1.52672,-0.23415 0,-0.86745 -9.25461,-0.59366 -13.01172,0.38494 -8.79397,2.29054 -15.85533,8.34109 -20.68794,17.72653 -3.41053,6.62364 -6.16918,15.31704 -6.24482,19.67946 -0.0305,1.76134 -0.25071,3.20409 -0.48927,3.20611 -0.23857,0.002 -0.34639,6.8052 -0.23962,15.11818 0.14706,11.4496 0.4504,16.29912 1.251,20 3.66737,16.95299 12.85762,28.78935 25.68192,33.0764 3.20874,1.07265 14.7408,0.66041 19.08396,-0.68222 z"
     id="path3757"
     inkscape:connector-curvature="0" />
  <path
     style="fill:#2b2200;stroke-width:0.61068702"
     d="m 508.76311,244.41182 c 0.18796,-1.22007 0.42476,-2.31732 0.52622,-2.43833 0.10147,-0.12102 2.04352,-0.60972 4.31569,-1.086 2.27217,-0.47629 4.28003,-1.0643 4.46191,-1.3067 0.18188,-0.24239 0.74291,-0.53105 1.24673,-0.64145 0.50382,-0.1104 1.80915,-0.75113 2.90076,-1.42385 l 1.98474,-1.22312 v -47.21518 -47.21517 l -2.14566,-1.88391 c -2.58359,-2.26842 -4.41426,-3.23007 -8.84671,-4.64716 -4.05839,-1.2975 -4.02969,-1.27094 -4.46223,-4.12981 l -0.34648,-2.29007 h 24.76239 24.7624 l -0.42777,2.29007 c -0.23528,1.25954 -0.50423,2.36814 -0.59767,2.46355 -0.0934,0.0954 -2.70381,0.77539 -5.80081,1.51108 -3.81793,0.90693 -6.08784,1.79451 -7.05004,2.75671 -1.57106,1.57106 -3.04094,6.68057 -2.59416,9.01771 0.15801,0.82657 0.0506,1.50286 -0.23872,1.50286 -0.2893,0 -0.52179,14.9084 -0.51664,33.12978 0.005,18.22137 0.21124,32.81166 0.45801,32.42288 0.24676,-0.3888 0.47645,3.32113 0.5104,8.24427 0.0969,14.04298 -0.0198,13.20108 2.07412,14.96302 1.02934,0.86613 2.89354,1.85863 4.14265,2.20554 2.33922,0.64967 19.81602,0.90435 20.42277,0.29762 0.18696,-0.18697 2.21479,-0.43076 4.50627,-0.54176 2.35849,-0.11424 4.2652,-0.49836 4.39416,-0.88523 0.12529,-0.37588 0.47107,-0.53308 0.76839,-0.34931 0.83412,0.5155 3.73289,-1.22303 5.80326,-3.4805 2.82114,-3.07611 4.54206,-5.61113 9.28206,-13.67306 4.26333,-7.25119 6.76343,-9.77852 8.22617,-8.31578 0.56725,0.56724 -1.55346,32.25644 -2.20208,32.90506 -0.31734,0.31734 -14.63656,0.53987 -65.52107,1.01821 l -25.1408,0.23633 z"
     id="path3759"
     inkscape:connector-curvature="0" />
  <path
     style="fill:#280b0b;stroke-width:0.61068702"
     d="m 279.32301,244.88546 c 0.005,-1.1447 0.21125,-2.37431 0.45802,-2.73248 0.24676,-0.35817 2.64713,-1.12019 5.33415,-1.69339 3.02186,-0.64463 5.81732,-1.68858 7.32825,-2.73668 l 2.44275,-1.6945 v -39.66554 c 0,-21.81605 -0.0989,-43.03637 -0.21975,-47.15628 l -0.21975,-7.49075 -2.46156,-2.10701 c -1.35387,-1.15885 -4.41529,-2.84269 -6.80316,-3.74185 -5.48809,-2.06655 -5.8683,-2.38359 -5.8683,-4.89328 v -2.06263 h 24.73282 24.73283 l -0.009,1.67939 c -0.005,0.92367 -0.21684,2.00571 -0.47044,2.40454 -0.54496,0.85705 -3.0802,1.88311 -5.81115,2.35187 -6.65802,1.14285 -8.24592,2.4577 -9.55908,7.91535 -1.08282,4.50041 -1.49961,44.96847 -0.7194,69.85283 0.71814,22.90482 0.69873,22.79579 4.46625,25.08697 4.18197,2.54319 27.22997,2.08994 33.40408,-0.65693 3.72511,-1.6573 7.1717,-5.80643 13.08077,-15.74711 2.61985,-4.4073 5.42313,-8.44557 6.22952,-8.97393 2.19018,-1.43506 3.67971,-0.89731 3.58603,1.29463 -0.18243,4.26893 -2.129,28.79887 -2.3789,29.97797 -0.20959,0.98893 -0.88551,1.38194 -2.87818,1.67351 -1.43235,0.20958 -21.90961,0.56454 -45.50503,0.78881 l -42.90077,0.40775 z"
     id="path3825"
     inkscape:connector-curvature="0" />
  <path
     style="fill:#280b0b;stroke-width:0.61068702"
     d="m 453.5639,274.82805 c -7.37779,-3.76209 -13.33142,-10.41119 -15.23911,-17.01922 -2.52828,-8.75777 -2.26026,-8.39477 -6.77946,-9.18176 -5.4,-0.94036 -14.88065,-4.0095 -19.40724,-6.28263 -14.94993,-7.50744 -25.51364,-22.4932 -29.05495,-41.2176 -1.13488,-6.00053 -0.39161,-26.0206 1.20115,-32.35372 4.4838,-17.82832 18.2312,-32.60471 36.40341,-39.12819 3.7419,-1.34327 5.54169,-1.56831 14.43736,-1.80517 8.82994,-0.23512 10.81514,-0.10558 15.13923,0.98789 19.29989,4.88053 32.626,17.88589 39.50764,38.5567 1.71055,5.13811 1.72825,5.34593 1.74179,20.45801 0.0137,15.23472 0.01,15.27822 -1.7468,20.45802 -3.68373,10.86165 -7.67583,17.08551 -16.07783,25.06607 -3.83641,3.64398 -7.45776,6.33077 -12.30895,9.1324 l -6.87336,3.96947 0.29844,3.20792 c 0.62071,6.67224 6.19885,14.68491 12.90538,18.53786 3.02811,1.73966 3.13827,1.75425 13.28244,1.75994 5.93328,0.003 10.22901,0.2455 10.22901,0.57666 0,1.88751 -1.46183,3.87068 -3.50757,4.75849 -1.84175,0.79928 -5.0628,1.03921 -16.33975,1.21713 l -14.04581,0.2216 z m -9.83356,-32.29896 c 1.92537,-0.31536 4.39865,-0.96217 5.49619,-1.43736 1.09754,-0.47519 2.73773,-1.16536 3.64489,-1.53372 2.73554,-1.11078 10.41382,-8.88226 12.86723,-13.02341 3.45132,-5.82555 5.99288,-12.971 6.92015,-19.45559 1.08558,-7.5918 1.08345,-28.31431 -0.004,-36.94657 -1.45463,-11.54758 -5.94664,-21.24087 -13.15974,-28.39695 -5.42767,-5.38476 -7.59231,-6.59775 -14.68556,-8.22924 -8.91419,-2.05032 -17.93215,-0.7809 -24.59043,3.46152 -9.47148,6.03487 -17.0916,20.25306 -18.85135,35.17424 -0.92121,7.81111 -0.32853,32.57675 0.9114,38.08297 3.36056,14.92347 12.27162,26.81311 23.58432,31.46758 3.7521,1.54374 11.3709,1.90046 17.86656,0.83653 z"
     id="path3827"
     inkscape:connector-curvature="0" />
  <path
     style="fill:#280b0b;stroke-width:0.61068702"
     d="m 508.94133,244.78893 c 0.0145,-2.13785 0.65559,-2.66487 4.26546,-3.50679 1.84732,-0.43086 5.07633,-1.61369 7.17557,-2.62853 l 3.8168,-1.84516 v -47.78981 -47.78981 l -2.94045,-2.15849 c -1.61725,-1.18716 -4.81804,-2.84001 -7.11288,-3.67299 -4.5276,-1.64343 -5.1903,-2.2555 -5.2045,-4.80689 l -0.009,-1.67939 h 24.36318 24.36316 l -0.49297,2.18578 c -0.27114,1.20219 -0.58571,2.26039 -0.69905,2.35158 -0.11334,0.0912 -2.1016,0.63229 -4.41834,1.20245 -7.00093,1.72299 -8.19869,2.42514 -9.70608,5.68994 l -1.34883,2.9214 0.0678,44.58014 c 0.0768,50.47502 -0.11001,48.37003 4.51234,50.85159 2.71047,1.45515 2.92367,1.47157 15.57252,1.19994 15.80743,-0.33947 18.28073,-0.92291 22.68626,-5.35159 1.6619,-1.67063 5.05213,-6.38383 7.53386,-10.47379 4.93551,-8.13387 7.56913,-11.49332 9.01013,-11.49332 0.81037,0 0.88173,0.9616 0.53242,7.17557 -0.95932,17.06534 -1.69359,24.27551 -2.53964,24.93812 -0.82488,0.64603 -43.33591,1.47184 -75.84898,1.47343 l -13.58779,6.7e-4 z"
     id="path3829"
     inkscape:connector-curvature="0" />
</svg>
